PathFileType	4	(X/Y/Z)	Patient4_TMGait_0pt8_01_left_06.trc.trc
DataRate	CameraRate	NumFrames	NumMarkers	Units	OrigDataRate	OrigDataStartFrame	OrigNumFrames
89.171974522293	89.171974522293	6	33	mm	89.171974522293	89	       141
Frame#	Time	Sacral			L.Shoulder			Chest			R.Shoulder			Neck			R.ASIS			L.ASIS			R.Thigh.Superior			R.Thigh.Lateral			R.Thigh.Inferior			R.Patella			L.Thigh.Superior			L.Thigh.Lateral			L.Thigh.Inferior			L.Patella			L.Shank.Superior			L.Shank.Lateral			L.Shank.Inferior			R.Shank.Superior			R.Shank.Lateral			R.Shank.Inferior			R.Heel			R.Midfoot.Superior			R.Midfoot.Lateral			R.Toe			L.Heel			L.Midfoot.Lateral			L.Midfoot.Superior			L.Toe			L.Elbow			L.Wrist			R.Elbow			R.Wrist			
		X1	Y1	Z1	X2	Y2	Z2	X3	Y3	Z3	X4	Y4	Z4	X5	Y5	Z5	X6	Y6	Z6	X7	Y7	Z7	X8	Y8	Z8	X9	Y9	Z9	X10	Y10	Z10	X11	Y11	Z11	X12	Y12	Z12	X13	Y13	Z13	X14	Y14	Z14	X15	Y15	Z15	X16	Y16	Z16	X17	Y17	Z17	X18	Y18	Z18	X19	Y19	Z19	X20	Y20	Z20	X21	Y21	Z21	X22	Y22	Z22	X23	Y23	Z23	X24	Y24	Z24	X25	Y25	Z25	X26	Y26	Z26	X27	Y27	Z27	X28	Y28	Z28	X29	Y29	Z29	X30	Y30	Z30	X31	Y31	Z31	X32	Y32	Z32	X33	Y33	Z33	

89	6.856857142857	850.395841640858	987.485689606309	507.146975705630	1043.571112091780	1420.169918602489	341.126116632779	1125.599269638333	1352.972609533912	514.578993619761	1017.658703425942	1422.920823729125	676.395061039241	1009.175591416995	1480.550911210736	495.680429025038	1069.633275116622	935.471128665949	649.524708640943	1077.902359898575	942.519686097991	374.022515544505	1144.843621683486	751.828332010881	625.544204295989	1078.433496892350	632.131755115772	680.422017531590	1169.397360143185	592.185757088839	607.162916352375	1185.506118918429	502.613557880851	615.230439031795	1107.039678834316	719.775675207311	403.238432791493	1019.549913427851	608.303198350845	330.124977347455	1096.932454142220	519.850548288190	395.256989405976	1083.587612375623	434.341116803096	391.482111141216	1010.030225011354	380.820616554485	380.487968520718	869.081789692389	350.788232972541	323.965882742914	839.925072219220	224.916867350098	378.806473095186	1162.634333629290	410.719903114598	620.886483248081	1096.089009836690	302.619554356686	679.981450445625	1147.495142537807	210.302509422391	620.818767265495	1024.153699661198	43.673446622278	586.927386107856	1193.124640660938	98.828075197214	628.279811541636	1104.915507643585	36.975548696015	665.035551794984	1312.962861470975	47.983416204113	660.012769133906	643.999708900799	175.221268471897	411.840420973829	698.864120251704	129.265113118152	330.695658819299	802.424131269071	128.901537664090	354.263010910743	872.893198998790	30.301649344545	322.511955594122	1113.514519683130	1084.624899660883	208.747779854614	1362.039096872808	1069.234600733487	265.425177491520	888.773213154687	1096.478885991520	771.596612434162	866.980471922940	837.733327824261	791.664459701527	
90	6.868071428571	850.084785751824	989.010525380554	510.594393270545	1042.339446053944	1421.008160882630	342.183020796867	1125.557039237087	1354.363871924588	515.311935823836	1018.660367656515	1424.800790948621	677.532885336482	1009.108188191139	1481.848176074290	496.708604386070	1069.761162414973	937.173846752965	652.038256621059	1076.905719934616	943.407981881640	376.749759382517	1142.896458761765	751.267330246079	628.857735500723	1074.425862890639	632.227296379763	682.485523423096	1165.149371870896	591.476551521223	609.289165869553	1179.991219879813	501.820424297221	616.536264688731	1111.592010735157	722.968568271488	406.400552630629	1028.767837692898	609.285775598359	332.268751941299	1108.765240591877	522.755210060706	397.760618391041	1096.892982325314	436.187157869553	393.542529309145	1021.859980502347	382.760331874701	382.315508322650	879.793364501242	357.612719800721	325.803366979060	846.985293089346	232.111568404226	379.769094196665	1156.373245121879	410.230275645934	622.097170042275	1089.028381034165	302.526654309526	680.806183173963	1139.512375178180	209.967999255106	621.284698333747	1015.214394266074	43.617552262905	587.101278989684	1184.080722366464	98.845696138665	628.382801012618	1095.926186073978	36.987459139625	665.209873584504	1303.931155458437	48.035233109690	660.305764963255	649.442620007578	192.262990707853	412.269975955986	701.862439511051	142.855265418916	331.233583195769	805.599865528245	135.321140295678	355.291603891758	868.723829755555	29.656777479910	323.581410631728	1107.563770173295	1082.813174179036	213.042066885924	1356.024968059759	1058.221005756160	268.733131996302	895.451505796990	1095.717502285072	774.495049932460	884.970023104365	835.934996618888	793.551599200567	
91	6.879285714286	849.621077687652	990.486978184044	514.008596508852	1040.845047115798	1421.702397664072	343.110537968090	1125.422564139004	1355.610681485002	515.827669534995	1019.757687794691	1426.562662050601	678.577916141012	1008.965826413261	1483.044299534373	497.663349586468	1069.779292030533	938.705611879596	654.288930960892	1075.642966494815	944.247871543603	379.272771945010	1140.653070281462	750.581344272183	631.879972335733	1070.279206158028	632.312951751724	684.475243681048	1160.627526696955	590.721548122872	611.256471091785	1174.160898799158	501.008110691661	617.830779380639	1115.853725053006	726.429502441046	409.236386810349	1037.537569817490	610.812145697169	334.143809793102	1120.065916386211	526.270647183413	399.944618113667	1109.861207650438	438.747759526430	395.423279817057	1033.641644528603	385.275942574792	384.003042942423	890.716207888510	364.297499995379	327.561422166844	854.875956492510	239.137330927098	380.780850198486	1149.889566646917	409.716525377524	623.261128148828	1081.836705296059	302.378167478181	681.633349808725	1131.449643948735	209.619602306067	621.735431828241	1006.235312799047	43.575171803206	587.264833707682	1175.063010959283	98.804618283976	628.515278580595	1086.910457910679	36.964453998790	665.367310089866	1294.902816804283	47.958791473080	660.553580692137	656.257759163816	207.717782391300	412.776463338277	706.553287460861	155.432340865100	331.881183290884	810.197125189161	141.758114946099	356.458954732423	866.807469999523	29.507365932734	324.752645351653	1101.442999316266	1080.974828006466	217.226988627427	1349.467462828450	1046.150221882999	271.693872603887	902.134594177454	1095.115128016368	777.562872464814	904.136030715380	834.736098775240	795.350264727448	
92	6.890500000000	849.012340472512	991.901384912243	517.361712936956	1039.138693140200	1422.254211430821	343.917370150126	1125.202965101195	1356.699431645912	516.147603493546	1020.938761886431	1428.194980516269	679.535826096469	1008.771917397947	1484.146751121813	498.545035765047	1069.696675455460	940.072488554527	656.302499508725	1074.142245163146	945.036461361669	381.567632054806	1138.190081910872	749.848513567450	634.547343899074	1066.100204140982	632.420034949034	686.376357800091	1155.919249921853	589.949984627056	613.034822438421	1168.112831330528	500.201971263829	619.081053945683	1119.762450490635	730.146717218979	411.747450755813	1045.756075132596	612.880809983334	335.743405533370	1130.746087780092	530.377988976972	401.756944469402	1122.393920732219	442.007685414052	397.020444678217	1045.287099490405	388.336242716555	385.475341242377	901.715391731997	370.652728783264	329.207885372673	863.602257789375	245.730070833273	381.800313137119	1143.274113514433	409.195766826437	624.354241092881	1074.593348167837	302.203913229840	682.464145553223	1123.357080631670	209.269840139395	622.160606929258	997.221440240575	43.552065349928	587.431066088550	1166.081327257045	98.711287968075	628.680094596263	1077.877109568730	36.922258221300	665.518484894908	1285.885816554949	47.771902429903	660.758726381296	664.363355723604	220.897160865175	413.392428221538	712.971627783897	166.401036207797	332.640488067675	816.373590419916	147.910930251325	357.677420315401	867.671209637874	29.942538037830	325.939018751652	1095.213691719494	1079.102974455670	221.306447910472	1342.277921351785	1033.026553448638	274.265732041064	908.880785269830	1094.628609075500	780.774063401110	924.410469499743	834.279268843499	797.025186164563	
93	6.901714285714	848.268188765287	993.249200416592	520.636640399812	1037.269875948935	1422.680585605969	344.617915279242	1124.901195151134	1357.636631104689	516.300604192761	1022.178064986018	1429.705244504809	680.410383472556	1008.540863484664	1485.170679496332	499.353497378741	1069.527319546740	941.290403075917	658.108848569794	1072.444632207151	945.793140879334	383.614547535548	1135.575380707633	749.126282963987	636.830394742138	1061.942149021315	632.562104849218	688.163083819093	1151.084532550962	589.179372072235	614.603144980242	1161.916297274790	499.418341179112	620.238743973633	1123.276894323673	734.107376999494	413.945556844692	1053.365281019805	615.468605926446	337.065977912594	1140.761915672234	535.042579132755	403.161195000942	1134.429450257463	445.940128778984	398.250285351392	1056.754089968582	391.888873798562	386.665184883502	912.701619996392	376.484415734482	330.714858369434	873.205793394097	251.629680538782	382.785694268599	1136.587745366977	408.681801026991	625.351861778440	1067.340531234598	302.028120869723	683.284123972417	1115.265170054356	208.929322635881	622.548425984917	988.179750848101	43.547822526646	587.606101811194	1157.133725553335	98.579017842094	628.869469062129	1068.834291630480	36.874771097556	665.669686297815	1276.882665055691	47.508708939157	660.927967547903	673.712632898525	231.221304962836	414.162445202657	721.144986841479	175.257581141878	333.507206988097	824.285554287087	153.467952160069	358.852497384240	871.762545696330	30.967597071744	327.012231955946	1088.931374363324	1077.211212299437	225.291646516121	1334.342069978988	1018.871086490422	276.417506394554	915.762097735863	1094.227312096219	784.093020730636	945.726880178345	834.720233447132	798.537286357535	
94	6.912928571429	847.399698449248	994.533936080264	523.823786751136	1035.281197052489	1423.007692294675	345.231088500659	1124.517099836090	1358.443318239662	516.319721755369	1023.442634894205	1431.112872502382	681.205780965791	1008.277817068439	1486.133872170440	500.090051644871	1069.288413045751	942.379468697414	659.733401211810	1070.602668175590	946.559261042261	385.397152257893	1132.860132898855	748.447756892804	638.726019393875	1057.816211325934	632.740257028698	689.805933284104	1146.156532497910	588.417765187247	615.948784985838	1155.612319465977	498.665967777238	621.254242169229	1126.376044820536	738.296201124187	415.845477230496	1060.343057587825	618.532402035973	338.116709826772	1150.101688312795	540.214782614816	404.141574637614	1145.934231411115	450.506394867266	399.059785099874	1068.034269166035	395.863859779658	387.522127408991	923.627331410455	381.608336838278	332.063103409150	883.751214698027	256.601607342507	383.696459823281	1129.862671720400	408.184621248993	626.230932850199	1060.092431702571	301.868309194908	684.071504336493	1107.186977372430	208.605346670500	622.886485071253	979.117396733697	43.558226469488	587.790034264081	1148.210523309954	98.424278700621	629.068414947565	1059.788468342531	36.832385943058	665.823303484050	1267.891927040100	47.207613631385	661.069520815712	684.304737982939	238.266781673558	415.136406737865	731.093107730016	181.632417995331	334.468825572270	834.065926825075	158.137108570952	359.888601337736	879.387419098248	32.492072705733	327.804962133273	1082.646342613696	1075.328584482084	229.197174536462	1325.524950260923	1003.737323023500	278.130799709395	922.851881746060	1093.894497567817	787.476307572587	968.011409943075	836.221659321857	799.844101579906	
